<mxfile host="65bd71144e">
    <diagram name="第 1 页" id="nncP0ra-YMvFppWEK5Et">
        <mxGraphModel dx="414" dy="388" grid="1" gridSize="10" guides="1" tooltips="1" connect="1" arrows="1" fold="1" page="1" pageScale="1" pageWidth="827" pageHeight="1169" math="0" shadow="0">
            <root>
                <mxCell id="0"/>
                <mxCell id="1" parent="0"/>
                <mxCell id="sOZoarH_zFzZJQYyIuvg-177" value="" style="rounded=0;whiteSpace=wrap;html=1;" parent="1" vertex="1">
                    <mxGeometry x="40" y="240" width="130" height="130" as="geometry"/>
                </mxCell>
                <mxCell id="sOZoarH_zFzZJQYyIuvg-166" value="" style="rounded=0;whiteSpace=wrap;html=1;direction=south;fillColor=#60a917;strokeColor=#2D7600;fontColor=#ffffff;" parent="1" vertex="1">
                    <mxGeometry x="50" y="250" width="20" height="110" as="geometry"/>
                </mxCell>
                <mxCell id="sOZoarH_zFzZJQYyIuvg-164" value="" style="rounded=0;whiteSpace=wrap;html=1;fillColor=#f8cecc;strokeColor=#b85450;" parent="1" vertex="1">
                    <mxGeometry x="330" y="250" width="110" height="20" as="geometry"/>
                </mxCell>
                <mxCell id="sOZoarH_zFzZJQYyIuvg-163" value="" style="rounded=0;whiteSpace=wrap;html=1;direction=south;fillColor=#f8cecc;strokeColor=#b85450;" parent="1" vertex="1">
                    <mxGeometry x="170" y="130" width="20" height="110" as="geometry"/>
                </mxCell>
                <mxCell id="sOZoarH_zFzZJQYyIuvg-162" value="" style="rounded=0;whiteSpace=wrap;html=1;fillColor=#f8cecc;strokeColor=#b85450;" parent="1" vertex="1">
                    <mxGeometry x="450" y="130" width="110" height="20" as="geometry"/>
                </mxCell>
                <mxCell id="sOZoarH_zFzZJQYyIuvg-1" value="" style="rounded=1;whiteSpace=wrap;html=1;fillStyle=auto;fillColor=#ffe6cc;strokeColor=#d79b00;shadow=0;glass=0;" parent="1" vertex="1">
                    <mxGeometry x="50" y="130" width="20" height="20" as="geometry"/>
                </mxCell>
                <mxCell id="sOZoarH_zFzZJQYyIuvg-2" value="" style="rounded=1;whiteSpace=wrap;html=1;fillStyle=auto;fillColor=#ffe6cc;strokeColor=#d79b00;shadow=0;glass=0;" parent="1" vertex="1">
                    <mxGeometry x="80" y="130" width="20" height="20" as="geometry"/>
                </mxCell>
                <mxCell id="sOZoarH_zFzZJQYyIuvg-3" value="" style="rounded=1;whiteSpace=wrap;html=1;fillStyle=auto;fillColor=#ffe6cc;strokeColor=#d79b00;shadow=0;glass=0;" parent="1" vertex="1">
                    <mxGeometry x="110" y="130" width="20" height="20" as="geometry"/>
                </mxCell>
                <mxCell id="sOZoarH_zFzZJQYyIuvg-4" value="" style="rounded=1;whiteSpace=wrap;html=1;fillStyle=auto;fillColor=#ffe6cc;strokeColor=#d79b00;shadow=0;glass=0;" parent="1" vertex="1">
                    <mxGeometry x="140" y="130" width="20" height="20" as="geometry"/>
                </mxCell>
                <mxCell id="sOZoarH_zFzZJQYyIuvg-5" value="" style="rounded=1;whiteSpace=wrap;html=1;fillStyle=auto;fillColor=#dae8fc;strokeColor=#6c8ebf;" parent="1" vertex="1">
                    <mxGeometry x="170" y="130" width="20" height="20" as="geometry"/>
                </mxCell>
                <mxCell id="sOZoarH_zFzZJQYyIuvg-6" value="" style="rounded=1;whiteSpace=wrap;html=1;fillStyle=auto;fillColor=#dae8fc;strokeColor=#6c8ebf;" parent="1" vertex="1">
                    <mxGeometry x="200" y="130" width="20" height="20" as="geometry"/>
                </mxCell>
                <mxCell id="sOZoarH_zFzZJQYyIuvg-7" value="" style="rounded=1;whiteSpace=wrap;html=1;fillStyle=auto;fillColor=#dae8fc;strokeColor=#6c8ebf;" parent="1" vertex="1">
                    <mxGeometry x="230" y="130" width="20" height="20" as="geometry"/>
                </mxCell>
                <mxCell id="sOZoarH_zFzZJQYyIuvg-8" value="" style="rounded=1;whiteSpace=wrap;html=1;fillStyle=auto;fillColor=#dae8fc;strokeColor=#6c8ebf;" parent="1" vertex="1">
                    <mxGeometry x="260" y="130" width="20" height="20" as="geometry"/>
                </mxCell>
                <mxCell id="sOZoarH_zFzZJQYyIuvg-9" value="" style="rounded=1;whiteSpace=wrap;html=1;fillStyle=auto;fillColor=#ffe6cc;strokeColor=#d79b00;shadow=0;glass=0;" parent="1" vertex="1">
                    <mxGeometry x="50" y="160" width="20" height="20" as="geometry"/>
                </mxCell>
                <mxCell id="sOZoarH_zFzZJQYyIuvg-10" value="" style="rounded=1;whiteSpace=wrap;html=1;fillStyle=auto;fillColor=#ffe6cc;strokeColor=#d79b00;shadow=0;glass=0;" parent="1" vertex="1">
                    <mxGeometry x="80" y="160" width="20" height="20" as="geometry"/>
                </mxCell>
                <mxCell id="sOZoarH_zFzZJQYyIuvg-11" value="" style="rounded=1;whiteSpace=wrap;html=1;fillStyle=auto;fillColor=#ffe6cc;strokeColor=#d79b00;shadow=0;glass=0;" parent="1" vertex="1">
                    <mxGeometry x="110" y="160" width="20" height="20" as="geometry"/>
                </mxCell>
                <mxCell id="sOZoarH_zFzZJQYyIuvg-12" value="" style="rounded=1;whiteSpace=wrap;html=1;fillStyle=auto;fillColor=#ffe6cc;strokeColor=#d79b00;shadow=0;glass=0;" parent="1" vertex="1">
                    <mxGeometry x="140" y="160" width="20" height="20" as="geometry"/>
                </mxCell>
                <mxCell id="sOZoarH_zFzZJQYyIuvg-13" value="" style="rounded=1;whiteSpace=wrap;html=1;fillStyle=auto;fillColor=#dae8fc;strokeColor=#6c8ebf;" parent="1" vertex="1">
                    <mxGeometry x="170" y="160" width="20" height="20" as="geometry"/>
                </mxCell>
                <mxCell id="sOZoarH_zFzZJQYyIuvg-14" value="" style="rounded=1;whiteSpace=wrap;html=1;fillStyle=auto;fillColor=#dae8fc;strokeColor=#6c8ebf;" parent="1" vertex="1">
                    <mxGeometry x="200" y="160" width="20" height="20" as="geometry"/>
                </mxCell>
                <mxCell id="sOZoarH_zFzZJQYyIuvg-15" value="" style="rounded=1;whiteSpace=wrap;html=1;fillStyle=auto;fillColor=#dae8fc;strokeColor=#6c8ebf;" parent="1" vertex="1">
                    <mxGeometry x="230" y="160" width="20" height="20" as="geometry"/>
                </mxCell>
                <mxCell id="sOZoarH_zFzZJQYyIuvg-16" value="" style="rounded=1;whiteSpace=wrap;html=1;fillStyle=auto;fillColor=#dae8fc;strokeColor=#6c8ebf;" parent="1" vertex="1">
                    <mxGeometry x="260" y="160" width="20" height="20" as="geometry"/>
                </mxCell>
                <mxCell id="sOZoarH_zFzZJQYyIuvg-17" value="" style="rounded=1;whiteSpace=wrap;html=1;fillStyle=auto;fillColor=#ffe6cc;strokeColor=#d79b00;shadow=0;glass=0;" parent="1" vertex="1">
                    <mxGeometry x="50" y="190" width="20" height="20" as="geometry"/>
                </mxCell>
                <mxCell id="sOZoarH_zFzZJQYyIuvg-18" value="" style="rounded=1;whiteSpace=wrap;html=1;fillStyle=auto;fillColor=#ffe6cc;strokeColor=#d79b00;shadow=0;glass=0;" parent="1" vertex="1">
                    <mxGeometry x="80" y="190" width="20" height="20" as="geometry"/>
                </mxCell>
                <mxCell id="sOZoarH_zFzZJQYyIuvg-19" value="" style="rounded=1;whiteSpace=wrap;html=1;fillStyle=auto;fillColor=#ffe6cc;strokeColor=#d79b00;shadow=0;glass=0;" parent="1" vertex="1">
                    <mxGeometry x="110" y="190" width="20" height="20" as="geometry"/>
                </mxCell>
                <mxCell id="sOZoarH_zFzZJQYyIuvg-20" value="" style="rounded=1;whiteSpace=wrap;html=1;fillStyle=auto;fillColor=#ffe6cc;strokeColor=#d79b00;shadow=0;glass=0;" parent="1" vertex="1">
                    <mxGeometry x="140" y="190" width="20" height="20" as="geometry"/>
                </mxCell>
                <mxCell id="sOZoarH_zFzZJQYyIuvg-21" value="" style="rounded=1;whiteSpace=wrap;html=1;fillStyle=auto;fillColor=#dae8fc;strokeColor=#6c8ebf;" parent="1" vertex="1">
                    <mxGeometry x="170" y="190" width="20" height="20" as="geometry"/>
                </mxCell>
                <mxCell id="sOZoarH_zFzZJQYyIuvg-22" value="" style="rounded=1;whiteSpace=wrap;html=1;fillStyle=auto;fillColor=#dae8fc;strokeColor=#6c8ebf;" parent="1" vertex="1">
                    <mxGeometry x="200" y="190" width="20" height="20" as="geometry"/>
                </mxCell>
                <mxCell id="sOZoarH_zFzZJQYyIuvg-23" value="" style="rounded=1;whiteSpace=wrap;html=1;fillStyle=auto;fillColor=#dae8fc;strokeColor=#6c8ebf;" parent="1" vertex="1">
                    <mxGeometry x="230" y="190" width="20" height="20" as="geometry"/>
                </mxCell>
                <mxCell id="sOZoarH_zFzZJQYyIuvg-24" value="" style="rounded=1;whiteSpace=wrap;html=1;fillStyle=auto;fillColor=#dae8fc;strokeColor=#6c8ebf;" parent="1" vertex="1">
                    <mxGeometry x="260" y="190" width="20" height="20" as="geometry"/>
                </mxCell>
                <mxCell id="sOZoarH_zFzZJQYyIuvg-25" value="" style="rounded=1;whiteSpace=wrap;html=1;fillStyle=auto;fillColor=#ffe6cc;strokeColor=#d79b00;shadow=0;glass=0;" parent="1" vertex="1">
                    <mxGeometry x="50" y="220" width="20" height="20" as="geometry"/>
                </mxCell>
                <mxCell id="sOZoarH_zFzZJQYyIuvg-26" value="" style="rounded=1;whiteSpace=wrap;html=1;fillStyle=auto;fillColor=#ffe6cc;strokeColor=#d79b00;shadow=0;glass=0;" parent="1" vertex="1">
                    <mxGeometry x="80" y="220" width="20" height="20" as="geometry"/>
                </mxCell>
                <mxCell id="sOZoarH_zFzZJQYyIuvg-27" value="" style="rounded=1;whiteSpace=wrap;html=1;fillStyle=auto;fillColor=#ffe6cc;strokeColor=#d79b00;shadow=0;glass=0;" parent="1" vertex="1">
                    <mxGeometry x="110" y="220" width="20" height="20" as="geometry"/>
                </mxCell>
                <mxCell id="sOZoarH_zFzZJQYyIuvg-28" value="" style="rounded=1;whiteSpace=wrap;html=1;fillStyle=auto;fillColor=#ffe6cc;strokeColor=#d79b00;shadow=0;glass=0;" parent="1" vertex="1">
                    <mxGeometry x="140" y="220" width="20" height="20" as="geometry"/>
                </mxCell>
                <mxCell id="sOZoarH_zFzZJQYyIuvg-29" value="" style="rounded=1;whiteSpace=wrap;html=1;fillStyle=auto;fillColor=#dae8fc;strokeColor=#6c8ebf;" parent="1" vertex="1">
                    <mxGeometry x="170" y="220" width="20" height="20" as="geometry"/>
                </mxCell>
                <mxCell id="sOZoarH_zFzZJQYyIuvg-30" value="" style="rounded=1;whiteSpace=wrap;html=1;fillStyle=auto;fillColor=#dae8fc;strokeColor=#6c8ebf;" parent="1" vertex="1">
                    <mxGeometry x="200" y="220" width="20" height="20" as="geometry"/>
                </mxCell>
                <mxCell id="sOZoarH_zFzZJQYyIuvg-31" value="" style="rounded=1;whiteSpace=wrap;html=1;fillStyle=auto;fillColor=#dae8fc;strokeColor=#6c8ebf;" parent="1" vertex="1">
                    <mxGeometry x="230" y="220" width="20" height="20" as="geometry"/>
                </mxCell>
                <mxCell id="sOZoarH_zFzZJQYyIuvg-32" value="" style="rounded=1;whiteSpace=wrap;html=1;fillStyle=auto;fillColor=#dae8fc;strokeColor=#6c8ebf;" parent="1" vertex="1">
                    <mxGeometry x="260" y="220" width="20" height="20" as="geometry"/>
                </mxCell>
                <mxCell id="sOZoarH_zFzZJQYyIuvg-33" value="" style="rounded=1;whiteSpace=wrap;html=1;fillStyle=auto;fillColor=#d5e8d4;strokeColor=#82b366;" parent="1" vertex="1">
                    <mxGeometry x="50" y="250" width="20" height="20" as="geometry"/>
                </mxCell>
                <mxCell id="sOZoarH_zFzZJQYyIuvg-34" value="" style="rounded=1;whiteSpace=wrap;html=1;fillStyle=auto;fillColor=#d5e8d4;strokeColor=#82b366;" parent="1" vertex="1">
                    <mxGeometry x="80" y="250" width="20" height="20" as="geometry"/>
                </mxCell>
                <mxCell id="sOZoarH_zFzZJQYyIuvg-35" value="" style="rounded=1;whiteSpace=wrap;html=1;fillStyle=auto;fillColor=#d5e8d4;strokeColor=#82b366;" parent="1" vertex="1">
                    <mxGeometry x="110" y="250" width="20" height="20" as="geometry"/>
                </mxCell>
                <mxCell id="sOZoarH_zFzZJQYyIuvg-36" value="" style="rounded=1;whiteSpace=wrap;html=1;fillStyle=auto;fillColor=#d5e8d4;strokeColor=#82b366;" parent="1" vertex="1">
                    <mxGeometry x="140" y="250" width="20" height="20" as="geometry"/>
                </mxCell>
                <mxCell id="sOZoarH_zFzZJQYyIuvg-37" value="" style="rounded=1;whiteSpace=wrap;html=1;fillStyle=auto;fillColor=#e1d5e7;strokeColor=#9673a6;" parent="1" vertex="1">
                    <mxGeometry x="170" y="250" width="20" height="20" as="geometry"/>
                </mxCell>
                <mxCell id="sOZoarH_zFzZJQYyIuvg-38" value="" style="rounded=1;whiteSpace=wrap;html=1;fillStyle=auto;fillColor=#e1d5e7;strokeColor=#9673a6;" parent="1" vertex="1">
                    <mxGeometry x="200" y="250" width="20" height="20" as="geometry"/>
                </mxCell>
                <mxCell id="sOZoarH_zFzZJQYyIuvg-39" value="" style="rounded=1;whiteSpace=wrap;html=1;fillStyle=auto;fillColor=#e1d5e7;strokeColor=#9673a6;" parent="1" vertex="1">
                    <mxGeometry x="230" y="250" width="20" height="20" as="geometry"/>
                </mxCell>
                <mxCell id="sOZoarH_zFzZJQYyIuvg-40" value="" style="rounded=1;whiteSpace=wrap;html=1;fillStyle=auto;fillColor=#e1d5e7;strokeColor=#9673a6;" parent="1" vertex="1">
                    <mxGeometry x="260" y="250" width="20" height="20" as="geometry"/>
                </mxCell>
                <mxCell id="sOZoarH_zFzZJQYyIuvg-41" value="" style="rounded=1;whiteSpace=wrap;html=1;fillStyle=auto;fillColor=#d5e8d4;strokeColor=#82b366;" parent="1" vertex="1">
                    <mxGeometry x="50" y="280" width="20" height="20" as="geometry"/>
                </mxCell>
                <mxCell id="sOZoarH_zFzZJQYyIuvg-42" value="" style="rounded=1;whiteSpace=wrap;html=1;fillStyle=auto;fillColor=#d5e8d4;strokeColor=#82b366;" parent="1" vertex="1">
                    <mxGeometry x="80" y="280" width="20" height="20" as="geometry"/>
                </mxCell>
                <mxCell id="sOZoarH_zFzZJQYyIuvg-43" value="" style="rounded=1;whiteSpace=wrap;html=1;fillStyle=auto;fillColor=#d5e8d4;strokeColor=#82b366;" parent="1" vertex="1">
                    <mxGeometry x="110" y="280" width="20" height="20" as="geometry"/>
                </mxCell>
                <mxCell id="sOZoarH_zFzZJQYyIuvg-44" value="" style="rounded=1;whiteSpace=wrap;html=1;fillStyle=auto;fillColor=#d5e8d4;strokeColor=#82b366;" parent="1" vertex="1">
                    <mxGeometry x="140" y="280" width="20" height="20" as="geometry"/>
                </mxCell>
                <mxCell id="sOZoarH_zFzZJQYyIuvg-45" value="" style="rounded=1;whiteSpace=wrap;html=1;fillStyle=auto;fillColor=#e1d5e7;strokeColor=#9673a6;" parent="1" vertex="1">
                    <mxGeometry x="170" y="280" width="20" height="20" as="geometry"/>
                </mxCell>
                <mxCell id="sOZoarH_zFzZJQYyIuvg-46" value="" style="rounded=1;whiteSpace=wrap;html=1;fillStyle=auto;fillColor=#e1d5e7;strokeColor=#9673a6;" parent="1" vertex="1">
                    <mxGeometry x="200" y="280" width="20" height="20" as="geometry"/>
                </mxCell>
                <mxCell id="sOZoarH_zFzZJQYyIuvg-47" value="" style="rounded=1;whiteSpace=wrap;html=1;fillStyle=auto;fillColor=#e1d5e7;strokeColor=#9673a6;" parent="1" vertex="1">
                    <mxGeometry x="230" y="280" width="20" height="20" as="geometry"/>
                </mxCell>
                <mxCell id="sOZoarH_zFzZJQYyIuvg-48" value="" style="rounded=1;whiteSpace=wrap;html=1;fillStyle=auto;fillColor=#e1d5e7;strokeColor=#9673a6;" parent="1" vertex="1">
                    <mxGeometry x="260" y="280" width="20" height="20" as="geometry"/>
                </mxCell>
                <mxCell id="sOZoarH_zFzZJQYyIuvg-49" value="" style="rounded=1;whiteSpace=wrap;html=1;fillStyle=auto;fillColor=#d5e8d4;strokeColor=#82b366;" parent="1" vertex="1">
                    <mxGeometry x="50" y="310" width="20" height="20" as="geometry"/>
                </mxCell>
                <mxCell id="sOZoarH_zFzZJQYyIuvg-50" value="" style="rounded=1;whiteSpace=wrap;html=1;fillStyle=auto;fillColor=#d5e8d4;strokeColor=#82b366;" parent="1" vertex="1">
                    <mxGeometry x="80" y="310" width="20" height="20" as="geometry"/>
                </mxCell>
                <mxCell id="sOZoarH_zFzZJQYyIuvg-51" value="" style="rounded=1;whiteSpace=wrap;html=1;fillStyle=auto;fillColor=#d5e8d4;strokeColor=#82b366;" parent="1" vertex="1">
                    <mxGeometry x="110" y="310" width="20" height="20" as="geometry"/>
                </mxCell>
                <mxCell id="sOZoarH_zFzZJQYyIuvg-52" value="" style="rounded=1;whiteSpace=wrap;html=1;fillStyle=auto;fillColor=#d5e8d4;strokeColor=#82b366;" parent="1" vertex="1">
                    <mxGeometry x="140" y="310" width="20" height="20" as="geometry"/>
                </mxCell>
                <mxCell id="sOZoarH_zFzZJQYyIuvg-53" value="" style="rounded=1;whiteSpace=wrap;html=1;fillStyle=auto;fillColor=#e1d5e7;strokeColor=#9673a6;" parent="1" vertex="1">
                    <mxGeometry x="170" y="310" width="20" height="20" as="geometry"/>
                </mxCell>
                <mxCell id="sOZoarH_zFzZJQYyIuvg-54" value="" style="rounded=1;whiteSpace=wrap;html=1;fillStyle=auto;fillColor=#e1d5e7;strokeColor=#9673a6;" parent="1" vertex="1">
                    <mxGeometry x="200" y="310" width="20" height="20" as="geometry"/>
                </mxCell>
                <mxCell id="sOZoarH_zFzZJQYyIuvg-55" value="" style="rounded=1;whiteSpace=wrap;html=1;fillStyle=auto;fillColor=#e1d5e7;strokeColor=#9673a6;" parent="1" vertex="1">
                    <mxGeometry x="230" y="310" width="20" height="20" as="geometry"/>
                </mxCell>
                <mxCell id="sOZoarH_zFzZJQYyIuvg-56" value="" style="rounded=1;whiteSpace=wrap;html=1;fillStyle=auto;fillColor=#e1d5e7;strokeColor=#9673a6;" parent="1" vertex="1">
                    <mxGeometry x="260" y="310" width="20" height="20" as="geometry"/>
                </mxCell>
                <mxCell id="sOZoarH_zFzZJQYyIuvg-175" style="edgeStyle=orthogonalEdgeStyle;rounded=0;orthogonalLoop=1;jettySize=auto;html=1;exitX=0.5;exitY=1;exitDx=0;exitDy=0;entryX=1;entryY=0.5;entryDx=0;entryDy=0;" parent="1" source="sOZoarH_zFzZJQYyIuvg-57" target="sOZoarH_zFzZJQYyIuvg-72" edge="1">
                    <mxGeometry relative="1" as="geometry">
                        <mxPoint x="580" y="140" as="targetPoint"/>
                    </mxGeometry>
                </mxCell>
                <mxCell id="sOZoarH_zFzZJQYyIuvg-176" value="②" style="edgeLabel;html=1;align=center;verticalAlign=middle;resizable=0;points=[];" parent="sOZoarH_zFzZJQYyIuvg-175" vertex="1" connectable="0">
                    <mxGeometry x="-0.3129" relative="1" as="geometry">
                        <mxPoint as="offset"/>
                    </mxGeometry>
                </mxCell>
                <mxCell id="sOZoarH_zFzZJQYyIuvg-57" value="" style="rounded=1;whiteSpace=wrap;html=1;fillStyle=auto;fillColor=#d5e8d4;strokeColor=#82b366;" parent="1" vertex="1">
                    <mxGeometry x="50" y="340" width="20" height="20" as="geometry"/>
                </mxCell>
                <mxCell id="sOZoarH_zFzZJQYyIuvg-58" value="" style="rounded=1;whiteSpace=wrap;html=1;fillStyle=auto;fillColor=#d5e8d4;strokeColor=#82b366;" parent="1" vertex="1">
                    <mxGeometry x="80" y="340" width="20" height="20" as="geometry"/>
                </mxCell>
                <mxCell id="sOZoarH_zFzZJQYyIuvg-59" value="" style="rounded=1;whiteSpace=wrap;html=1;fillStyle=auto;fillColor=#d5e8d4;strokeColor=#82b366;" parent="1" vertex="1">
                    <mxGeometry x="110" y="340" width="20" height="20" as="geometry"/>
                </mxCell>
                <mxCell id="sOZoarH_zFzZJQYyIuvg-60" value="" style="rounded=1;whiteSpace=wrap;html=1;fillStyle=auto;fillColor=#d5e8d4;strokeColor=#82b366;" parent="1" vertex="1">
                    <mxGeometry x="140" y="340" width="20" height="20" as="geometry"/>
                </mxCell>
                <mxCell id="sOZoarH_zFzZJQYyIuvg-61" value="" style="rounded=1;whiteSpace=wrap;html=1;fillStyle=auto;fillColor=#e1d5e7;strokeColor=#9673a6;" parent="1" vertex="1">
                    <mxGeometry x="170" y="340" width="20" height="20" as="geometry"/>
                </mxCell>
                <mxCell id="sOZoarH_zFzZJQYyIuvg-62" value="" style="rounded=1;whiteSpace=wrap;html=1;fillStyle=auto;fillColor=#e1d5e7;strokeColor=#9673a6;" parent="1" vertex="1">
                    <mxGeometry x="200" y="340" width="20" height="20" as="geometry"/>
                </mxCell>
                <mxCell id="sOZoarH_zFzZJQYyIuvg-63" value="" style="rounded=1;whiteSpace=wrap;html=1;fillStyle=auto;fillColor=#e1d5e7;strokeColor=#9673a6;" parent="1" vertex="1">
                    <mxGeometry x="230" y="340" width="20" height="20" as="geometry"/>
                </mxCell>
                <mxCell id="sOZoarH_zFzZJQYyIuvg-64" value="" style="rounded=1;whiteSpace=wrap;html=1;fillStyle=auto;fillColor=#e1d5e7;strokeColor=#9673a6;" parent="1" vertex="1">
                    <mxGeometry x="260" y="340" width="20" height="20" as="geometry"/>
                </mxCell>
                <mxCell id="sOZoarH_zFzZJQYyIuvg-65" value="" style="rounded=1;whiteSpace=wrap;html=1;fillStyle=auto;fillColor=#ffe6cc;strokeColor=#d79b00;" parent="1" vertex="1">
                    <mxGeometry x="330" y="130" width="20" height="20" as="geometry"/>
                </mxCell>
                <mxCell id="sOZoarH_zFzZJQYyIuvg-66" value="" style="rounded=1;whiteSpace=wrap;html=1;fillStyle=auto;fillColor=#ffe6cc;strokeColor=#d79b00;" parent="1" vertex="1">
                    <mxGeometry x="360" y="130" width="20" height="20" as="geometry"/>
                </mxCell>
                <mxCell id="sOZoarH_zFzZJQYyIuvg-67" value="" style="rounded=1;whiteSpace=wrap;html=1;fillStyle=auto;fillColor=#ffe6cc;strokeColor=#d79b00;" parent="1" vertex="1">
                    <mxGeometry x="390" y="130" width="20" height="20" as="geometry"/>
                </mxCell>
                <mxCell id="sOZoarH_zFzZJQYyIuvg-68" value="" style="rounded=1;whiteSpace=wrap;html=1;fillStyle=auto;fillColor=#ffe6cc;strokeColor=#d79b00;" parent="1" vertex="1">
                    <mxGeometry x="420" y="130" width="20" height="20" as="geometry"/>
                </mxCell>
                <mxCell id="sOZoarH_zFzZJQYyIuvg-69" value="" style="rounded=1;whiteSpace=wrap;html=1;fillStyle=auto;fillColor=#dae8fc;strokeColor=#6c8ebf;" parent="1" vertex="1">
                    <mxGeometry x="450" y="130" width="20" height="20" as="geometry"/>
                </mxCell>
                <mxCell id="sOZoarH_zFzZJQYyIuvg-70" value="" style="rounded=1;whiteSpace=wrap;html=1;fillStyle=auto;fillColor=#dae8fc;strokeColor=#6c8ebf;" parent="1" vertex="1">
                    <mxGeometry x="480" y="130" width="20" height="20" as="geometry"/>
                </mxCell>
                <mxCell id="sOZoarH_zFzZJQYyIuvg-71" value="" style="rounded=1;whiteSpace=wrap;html=1;fillStyle=auto;fillColor=#dae8fc;strokeColor=#6c8ebf;" parent="1" vertex="1">
                    <mxGeometry x="510" y="130" width="20" height="20" as="geometry"/>
                </mxCell>
                <mxCell id="sOZoarH_zFzZJQYyIuvg-72" value="" style="rounded=1;whiteSpace=wrap;html=1;fillStyle=auto;fillColor=#dae8fc;strokeColor=#6c8ebf;" parent="1" vertex="1">
                    <mxGeometry x="540" y="130" width="20" height="20" as="geometry"/>
                </mxCell>
                <mxCell id="sOZoarH_zFzZJQYyIuvg-73" value="" style="rounded=1;whiteSpace=wrap;html=1;fillStyle=auto;fillColor=#ffe6cc;strokeColor=#d79b00;" parent="1" vertex="1">
                    <mxGeometry x="330" y="160" width="20" height="20" as="geometry"/>
                </mxCell>
                <mxCell id="sOZoarH_zFzZJQYyIuvg-74" value="" style="rounded=1;whiteSpace=wrap;html=1;fillStyle=auto;fillColor=#ffe6cc;strokeColor=#d79b00;" parent="1" vertex="1">
                    <mxGeometry x="360" y="160" width="20" height="20" as="geometry"/>
                </mxCell>
                <mxCell id="sOZoarH_zFzZJQYyIuvg-75" value="" style="rounded=1;whiteSpace=wrap;html=1;fillStyle=auto;fillColor=#ffe6cc;strokeColor=#d79b00;" parent="1" vertex="1">
                    <mxGeometry x="390" y="160" width="20" height="20" as="geometry"/>
                </mxCell>
                <mxCell id="sOZoarH_zFzZJQYyIuvg-76" value="" style="rounded=1;whiteSpace=wrap;html=1;fillStyle=auto;fillColor=#ffe6cc;strokeColor=#d79b00;" parent="1" vertex="1">
                    <mxGeometry x="420" y="160" width="20" height="20" as="geometry"/>
                </mxCell>
                <mxCell id="sOZoarH_zFzZJQYyIuvg-77" value="" style="rounded=1;whiteSpace=wrap;html=1;fillStyle=auto;fillColor=#dae8fc;strokeColor=#6c8ebf;" parent="1" vertex="1">
                    <mxGeometry x="450" y="160" width="20" height="20" as="geometry"/>
                </mxCell>
                <mxCell id="sOZoarH_zFzZJQYyIuvg-78" value="" style="rounded=1;whiteSpace=wrap;html=1;fillStyle=auto;fillColor=#dae8fc;strokeColor=#6c8ebf;" parent="1" vertex="1">
                    <mxGeometry x="480" y="160" width="20" height="20" as="geometry"/>
                </mxCell>
                <mxCell id="sOZoarH_zFzZJQYyIuvg-79" value="" style="rounded=1;whiteSpace=wrap;html=1;fillStyle=auto;fillColor=#dae8fc;strokeColor=#6c8ebf;" parent="1" vertex="1">
                    <mxGeometry x="510" y="160" width="20" height="20" as="geometry"/>
                </mxCell>
                <mxCell id="sOZoarH_zFzZJQYyIuvg-80" value="" style="rounded=1;whiteSpace=wrap;html=1;fillStyle=auto;fillColor=#dae8fc;strokeColor=#6c8ebf;" parent="1" vertex="1">
                    <mxGeometry x="540" y="160" width="20" height="20" as="geometry"/>
                </mxCell>
                <mxCell id="sOZoarH_zFzZJQYyIuvg-81" value="" style="rounded=1;whiteSpace=wrap;html=1;fillStyle=auto;fillColor=#ffe6cc;strokeColor=#d79b00;" parent="1" vertex="1">
                    <mxGeometry x="330" y="190" width="20" height="20" as="geometry"/>
                </mxCell>
                <mxCell id="sOZoarH_zFzZJQYyIuvg-82" value="" style="rounded=1;whiteSpace=wrap;html=1;fillStyle=auto;fillColor=#ffe6cc;strokeColor=#d79b00;" parent="1" vertex="1">
                    <mxGeometry x="360" y="190" width="20" height="20" as="geometry"/>
                </mxCell>
                <mxCell id="sOZoarH_zFzZJQYyIuvg-83" value="" style="rounded=1;whiteSpace=wrap;html=1;fillStyle=auto;fillColor=#ffe6cc;strokeColor=#d79b00;" parent="1" vertex="1">
                    <mxGeometry x="390" y="190" width="20" height="20" as="geometry"/>
                </mxCell>
                <mxCell id="sOZoarH_zFzZJQYyIuvg-84" value="" style="rounded=1;whiteSpace=wrap;html=1;fillStyle=auto;fillColor=#ffe6cc;strokeColor=#d79b00;" parent="1" vertex="1">
                    <mxGeometry x="420" y="190" width="20" height="20" as="geometry"/>
                </mxCell>
                <mxCell id="sOZoarH_zFzZJQYyIuvg-85" value="" style="rounded=1;whiteSpace=wrap;html=1;fillStyle=auto;fillColor=#dae8fc;strokeColor=#6c8ebf;" parent="1" vertex="1">
                    <mxGeometry x="450" y="190" width="20" height="20" as="geometry"/>
                </mxCell>
                <mxCell id="sOZoarH_zFzZJQYyIuvg-86" value="" style="rounded=1;whiteSpace=wrap;html=1;fillStyle=auto;fillColor=#dae8fc;strokeColor=#6c8ebf;" parent="1" vertex="1">
                    <mxGeometry x="480" y="190" width="20" height="20" as="geometry"/>
                </mxCell>
                <mxCell id="sOZoarH_zFzZJQYyIuvg-87" value="" style="rounded=1;whiteSpace=wrap;html=1;fillStyle=auto;fillColor=#dae8fc;strokeColor=#6c8ebf;" parent="1" vertex="1">
                    <mxGeometry x="510" y="190" width="20" height="20" as="geometry"/>
                </mxCell>
                <mxCell id="sOZoarH_zFzZJQYyIuvg-88" value="" style="rounded=1;whiteSpace=wrap;html=1;fillStyle=auto;fillColor=#dae8fc;strokeColor=#6c8ebf;" parent="1" vertex="1">
                    <mxGeometry x="540" y="190" width="20" height="20" as="geometry"/>
                </mxCell>
                <mxCell id="sOZoarH_zFzZJQYyIuvg-89" value="" style="rounded=1;whiteSpace=wrap;html=1;fillStyle=auto;fillColor=#ffe6cc;strokeColor=#d79b00;" parent="1" vertex="1">
                    <mxGeometry x="330" y="220" width="20" height="20" as="geometry"/>
                </mxCell>
                <mxCell id="sOZoarH_zFzZJQYyIuvg-90" value="" style="rounded=1;whiteSpace=wrap;html=1;fillStyle=auto;fillColor=#ffe6cc;strokeColor=#d79b00;" parent="1" vertex="1">
                    <mxGeometry x="360" y="220" width="20" height="20" as="geometry"/>
                </mxCell>
                <mxCell id="sOZoarH_zFzZJQYyIuvg-91" value="" style="rounded=1;whiteSpace=wrap;html=1;fillStyle=auto;fillColor=#ffe6cc;strokeColor=#d79b00;" parent="1" vertex="1">
                    <mxGeometry x="390" y="220" width="20" height="20" as="geometry"/>
                </mxCell>
                <mxCell id="sOZoarH_zFzZJQYyIuvg-92" value="" style="rounded=1;whiteSpace=wrap;html=1;fillStyle=auto;fillColor=#ffe6cc;strokeColor=#d79b00;" parent="1" vertex="1">
                    <mxGeometry x="420" y="220" width="20" height="20" as="geometry"/>
                </mxCell>
                <mxCell id="sOZoarH_zFzZJQYyIuvg-93" value="" style="rounded=1;whiteSpace=wrap;html=1;fillStyle=auto;fillColor=#dae8fc;strokeColor=#6c8ebf;" parent="1" vertex="1">
                    <mxGeometry x="450" y="220" width="20" height="20" as="geometry"/>
                </mxCell>
                <mxCell id="sOZoarH_zFzZJQYyIuvg-94" value="" style="rounded=1;whiteSpace=wrap;html=1;fillStyle=auto;fillColor=#dae8fc;strokeColor=#6c8ebf;" parent="1" vertex="1">
                    <mxGeometry x="480" y="220" width="20" height="20" as="geometry"/>
                </mxCell>
                <mxCell id="sOZoarH_zFzZJQYyIuvg-95" value="" style="rounded=1;whiteSpace=wrap;html=1;fillStyle=auto;fillColor=#dae8fc;strokeColor=#6c8ebf;" parent="1" vertex="1">
                    <mxGeometry x="510" y="220" width="20" height="20" as="geometry"/>
                </mxCell>
                <mxCell id="sOZoarH_zFzZJQYyIuvg-96" value="" style="rounded=1;whiteSpace=wrap;html=1;fillStyle=auto;fillColor=#dae8fc;strokeColor=#6c8ebf;" parent="1" vertex="1">
                    <mxGeometry x="540" y="220" width="20" height="20" as="geometry"/>
                </mxCell>
                <mxCell id="sOZoarH_zFzZJQYyIuvg-97" value="" style="rounded=1;whiteSpace=wrap;html=1;fillStyle=auto;fillColor=#d5e8d4;strokeColor=#82b366;" parent="1" vertex="1">
                    <mxGeometry x="330" y="250" width="20" height="20" as="geometry"/>
                </mxCell>
                <mxCell id="sOZoarH_zFzZJQYyIuvg-98" value="" style="rounded=1;whiteSpace=wrap;html=1;fillStyle=auto;fillColor=#d5e8d4;strokeColor=#82b366;" parent="1" vertex="1">
                    <mxGeometry x="360" y="250" width="20" height="20" as="geometry"/>
                </mxCell>
                <mxCell id="sOZoarH_zFzZJQYyIuvg-99" value="" style="rounded=1;whiteSpace=wrap;html=1;fillStyle=auto;fillColor=#d5e8d4;strokeColor=#82b366;" parent="1" vertex="1">
                    <mxGeometry x="390" y="250" width="20" height="20" as="geometry"/>
                </mxCell>
                <mxCell id="sOZoarH_zFzZJQYyIuvg-100" value="" style="rounded=1;whiteSpace=wrap;html=1;fillStyle=auto;fillColor=#d5e8d4;strokeColor=#82b366;" parent="1" vertex="1">
                    <mxGeometry x="420" y="250" width="20" height="20" as="geometry"/>
                </mxCell>
                <mxCell id="sOZoarH_zFzZJQYyIuvg-101" value="" style="rounded=1;whiteSpace=wrap;html=1;fillStyle=auto;fillColor=#e1d5e7;strokeColor=#9673a6;" parent="1" vertex="1">
                    <mxGeometry x="450" y="250" width="20" height="20" as="geometry"/>
                </mxCell>
                <mxCell id="sOZoarH_zFzZJQYyIuvg-102" value="" style="rounded=1;whiteSpace=wrap;html=1;fillStyle=auto;fillColor=#e1d5e7;strokeColor=#9673a6;" parent="1" vertex="1">
                    <mxGeometry x="480" y="250" width="20" height="20" as="geometry"/>
                </mxCell>
                <mxCell id="sOZoarH_zFzZJQYyIuvg-103" value="" style="rounded=1;whiteSpace=wrap;html=1;fillStyle=auto;fillColor=#e1d5e7;strokeColor=#9673a6;" parent="1" vertex="1">
                    <mxGeometry x="510" y="250" width="20" height="20" as="geometry"/>
                </mxCell>
                <mxCell id="sOZoarH_zFzZJQYyIuvg-104" value="" style="rounded=1;whiteSpace=wrap;html=1;fillStyle=auto;fillColor=#e1d5e7;strokeColor=#9673a6;" parent="1" vertex="1">
                    <mxGeometry x="540" y="250" width="20" height="20" as="geometry"/>
                </mxCell>
                <mxCell id="sOZoarH_zFzZJQYyIuvg-105" value="" style="rounded=1;whiteSpace=wrap;html=1;fillStyle=auto;fillColor=#d5e8d4;strokeColor=#82b366;" parent="1" vertex="1">
                    <mxGeometry x="330" y="280" width="20" height="20" as="geometry"/>
                </mxCell>
                <mxCell id="sOZoarH_zFzZJQYyIuvg-106" value="" style="rounded=1;whiteSpace=wrap;html=1;fillStyle=auto;fillColor=#d5e8d4;strokeColor=#82b366;" parent="1" vertex="1">
                    <mxGeometry x="360" y="280" width="20" height="20" as="geometry"/>
                </mxCell>
                <mxCell id="sOZoarH_zFzZJQYyIuvg-107" value="" style="rounded=1;whiteSpace=wrap;html=1;fillStyle=auto;fillColor=#d5e8d4;strokeColor=#82b366;" parent="1" vertex="1">
                    <mxGeometry x="390" y="280" width="20" height="20" as="geometry"/>
                </mxCell>
                <mxCell id="sOZoarH_zFzZJQYyIuvg-108" value="" style="rounded=1;whiteSpace=wrap;html=1;fillStyle=auto;fillColor=#d5e8d4;strokeColor=#82b366;" parent="1" vertex="1">
                    <mxGeometry x="420" y="280" width="20" height="20" as="geometry"/>
                </mxCell>
                <mxCell id="sOZoarH_zFzZJQYyIuvg-109" value="" style="rounded=1;whiteSpace=wrap;html=1;fillStyle=auto;fillColor=#e1d5e7;strokeColor=#9673a6;" parent="1" vertex="1">
                    <mxGeometry x="450" y="280" width="20" height="20" as="geometry"/>
                </mxCell>
                <mxCell id="sOZoarH_zFzZJQYyIuvg-110" value="" style="rounded=1;whiteSpace=wrap;html=1;fillStyle=auto;fillColor=#e1d5e7;strokeColor=#9673a6;" parent="1" vertex="1">
                    <mxGeometry x="480" y="280" width="20" height="20" as="geometry"/>
                </mxCell>
                <mxCell id="sOZoarH_zFzZJQYyIuvg-111" value="" style="rounded=1;whiteSpace=wrap;html=1;fillStyle=auto;fillColor=#e1d5e7;strokeColor=#9673a6;" parent="1" vertex="1">
                    <mxGeometry x="510" y="280" width="20" height="20" as="geometry"/>
                </mxCell>
                <mxCell id="sOZoarH_zFzZJQYyIuvg-112" value="" style="rounded=1;whiteSpace=wrap;html=1;fillStyle=auto;fillColor=#e1d5e7;strokeColor=#9673a6;" parent="1" vertex="1">
                    <mxGeometry x="540" y="280" width="20" height="20" as="geometry"/>
                </mxCell>
                <mxCell id="sOZoarH_zFzZJQYyIuvg-113" value="" style="rounded=1;whiteSpace=wrap;html=1;fillStyle=auto;fillColor=#d5e8d4;strokeColor=#82b366;" parent="1" vertex="1">
                    <mxGeometry x="330" y="310" width="20" height="20" as="geometry"/>
                </mxCell>
                <mxCell id="sOZoarH_zFzZJQYyIuvg-114" value="" style="rounded=1;whiteSpace=wrap;html=1;fillStyle=auto;fillColor=#d5e8d4;strokeColor=#82b366;" parent="1" vertex="1">
                    <mxGeometry x="360" y="310" width="20" height="20" as="geometry"/>
                </mxCell>
                <mxCell id="sOZoarH_zFzZJQYyIuvg-115" value="" style="rounded=1;whiteSpace=wrap;html=1;fillStyle=auto;fillColor=#d5e8d4;strokeColor=#82b366;" parent="1" vertex="1">
                    <mxGeometry x="390" y="310" width="20" height="20" as="geometry"/>
                </mxCell>
                <mxCell id="sOZoarH_zFzZJQYyIuvg-116" value="" style="rounded=1;whiteSpace=wrap;html=1;fillStyle=auto;fillColor=#d5e8d4;strokeColor=#82b366;" parent="1" vertex="1">
                    <mxGeometry x="420" y="310" width="20" height="20" as="geometry"/>
                </mxCell>
                <mxCell id="sOZoarH_zFzZJQYyIuvg-117" value="" style="rounded=1;whiteSpace=wrap;html=1;fillStyle=auto;fillColor=#e1d5e7;strokeColor=#9673a6;" parent="1" vertex="1">
                    <mxGeometry x="450" y="310" width="20" height="20" as="geometry"/>
                </mxCell>
                <mxCell id="sOZoarH_zFzZJQYyIuvg-118" value="" style="rounded=1;whiteSpace=wrap;html=1;fillStyle=auto;fillColor=#e1d5e7;strokeColor=#9673a6;" parent="1" vertex="1">
                    <mxGeometry x="480" y="310" width="20" height="20" as="geometry"/>
                </mxCell>
                <mxCell id="sOZoarH_zFzZJQYyIuvg-119" value="" style="rounded=1;whiteSpace=wrap;html=1;fillStyle=auto;fillColor=#e1d5e7;strokeColor=#9673a6;" parent="1" vertex="1">
                    <mxGeometry x="510" y="310" width="20" height="20" as="geometry"/>
                </mxCell>
                <mxCell id="sOZoarH_zFzZJQYyIuvg-120" value="" style="rounded=1;whiteSpace=wrap;html=1;fillStyle=auto;fillColor=#e1d5e7;strokeColor=#9673a6;" parent="1" vertex="1">
                    <mxGeometry x="540" y="310" width="20" height="20" as="geometry"/>
                </mxCell>
                <mxCell id="sOZoarH_zFzZJQYyIuvg-121" value="" style="rounded=1;whiteSpace=wrap;html=1;fillStyle=auto;fillColor=#d5e8d4;strokeColor=#82b366;" parent="1" vertex="1">
                    <mxGeometry x="330" y="340" width="20" height="20" as="geometry"/>
                </mxCell>
                <mxCell id="sOZoarH_zFzZJQYyIuvg-122" value="" style="rounded=1;whiteSpace=wrap;html=1;fillStyle=auto;fillColor=#d5e8d4;strokeColor=#82b366;" parent="1" vertex="1">
                    <mxGeometry x="360" y="340" width="20" height="20" as="geometry"/>
                </mxCell>
                <mxCell id="sOZoarH_zFzZJQYyIuvg-123" value="" style="rounded=1;whiteSpace=wrap;html=1;fillStyle=auto;fillColor=#d5e8d4;strokeColor=#82b366;" parent="1" vertex="1">
                    <mxGeometry x="390" y="340" width="20" height="20" as="geometry"/>
                </mxCell>
                <mxCell id="sOZoarH_zFzZJQYyIuvg-124" value="" style="rounded=1;whiteSpace=wrap;html=1;fillStyle=auto;fillColor=#d5e8d4;strokeColor=#82b366;" parent="1" vertex="1">
                    <mxGeometry x="420" y="340" width="20" height="20" as="geometry"/>
                </mxCell>
                <mxCell id="sOZoarH_zFzZJQYyIuvg-125" value="" style="rounded=1;whiteSpace=wrap;html=1;fillStyle=auto;fillColor=#e1d5e7;strokeColor=#9673a6;" parent="1" vertex="1">
                    <mxGeometry x="450" y="340" width="20" height="20" as="geometry"/>
                </mxCell>
                <mxCell id="sOZoarH_zFzZJQYyIuvg-126" value="" style="rounded=1;whiteSpace=wrap;html=1;fillStyle=auto;fillColor=#e1d5e7;strokeColor=#9673a6;" parent="1" vertex="1">
                    <mxGeometry x="480" y="340" width="20" height="20" as="geometry"/>
                </mxCell>
                <mxCell id="sOZoarH_zFzZJQYyIuvg-127" value="" style="rounded=1;whiteSpace=wrap;html=1;fillStyle=auto;fillColor=#e1d5e7;strokeColor=#9673a6;" parent="1" vertex="1">
                    <mxGeometry x="510" y="340" width="20" height="20" as="geometry"/>
                </mxCell>
                <mxCell id="sOZoarH_zFzZJQYyIuvg-128" value="" style="rounded=1;whiteSpace=wrap;html=1;fillStyle=auto;fillColor=#e1d5e7;strokeColor=#9673a6;" parent="1" vertex="1">
                    <mxGeometry x="540" y="340" width="20" height="20" as="geometry"/>
                </mxCell>
                <mxCell id="sOZoarH_zFzZJQYyIuvg-129" value="" style="endArrow=none;html=1;rounded=0;exitX=0;exitY=0.5;exitDx=0;exitDy=0;entryX=1;entryY=0.5;entryDx=0;entryDy=0;" parent="1" source="sOZoarH_zFzZJQYyIuvg-1" target="sOZoarH_zFzZJQYyIuvg-4" edge="1">
                    <mxGeometry width="50" height="50" relative="1" as="geometry">
                        <mxPoint x="160" y="300" as="sourcePoint"/>
                        <mxPoint x="210" y="250" as="targetPoint"/>
                    </mxGeometry>
                </mxCell>
                <mxCell id="sOZoarH_zFzZJQYyIuvg-130" value="1" style="edgeLabel;html=1;align=center;verticalAlign=middle;resizable=0;points=[];" parent="sOZoarH_zFzZJQYyIuvg-129" vertex="1" connectable="0">
                    <mxGeometry x="-0.0056" y="2" relative="1" as="geometry">
                        <mxPoint as="offset"/>
                    </mxGeometry>
                </mxCell>
                <mxCell id="sOZoarH_zFzZJQYyIuvg-131" value="" style="endArrow=none;html=1;rounded=0;exitX=0;exitY=0.5;exitDx=0;exitDy=0;entryX=1;entryY=0.5;entryDx=0;entryDy=0;" parent="1" edge="1">
                    <mxGeometry width="50" height="50" relative="1" as="geometry">
                        <mxPoint x="170" y="139.66" as="sourcePoint"/>
                        <mxPoint x="280" y="139.66" as="targetPoint"/>
                    </mxGeometry>
                </mxCell>
                <mxCell id="sOZoarH_zFzZJQYyIuvg-132" value="2" style="edgeLabel;html=1;align=center;verticalAlign=middle;resizable=0;points=[];" parent="sOZoarH_zFzZJQYyIuvg-131" vertex="1" connectable="0">
                    <mxGeometry x="-0.0056" y="2" relative="1" as="geometry">
                        <mxPoint as="offset"/>
                    </mxGeometry>
                </mxCell>
                <mxCell id="sOZoarH_zFzZJQYyIuvg-133" value="" style="endArrow=none;html=1;rounded=0;exitX=0;exitY=0.5;exitDx=0;exitDy=0;entryX=1;entryY=0.5;entryDx=0;entryDy=0;" parent="1" edge="1">
                    <mxGeometry width="50" height="50" relative="1" as="geometry">
                        <mxPoint x="50" y="169.66" as="sourcePoint"/>
                        <mxPoint x="160" y="169.66" as="targetPoint"/>
                    </mxGeometry>
                </mxCell>
                <mxCell id="sOZoarH_zFzZJQYyIuvg-134" value="3" style="edgeLabel;html=1;align=center;verticalAlign=middle;resizable=0;points=[];" parent="sOZoarH_zFzZJQYyIuvg-133" vertex="1" connectable="0">
                    <mxGeometry x="-0.0056" y="2" relative="1" as="geometry">
                        <mxPoint as="offset"/>
                    </mxGeometry>
                </mxCell>
                <mxCell id="sOZoarH_zFzZJQYyIuvg-135" value="" style="endArrow=none;html=1;rounded=0;exitX=0;exitY=0.5;exitDx=0;exitDy=0;entryX=1;entryY=0.5;entryDx=0;entryDy=0;" parent="1" edge="1">
                    <mxGeometry width="50" height="50" relative="1" as="geometry">
                        <mxPoint x="170" y="169.66" as="sourcePoint"/>
                        <mxPoint x="280" y="169.66" as="targetPoint"/>
                    </mxGeometry>
                </mxCell>
                <mxCell id="sOZoarH_zFzZJQYyIuvg-136" value="4" style="edgeLabel;html=1;align=center;verticalAlign=middle;resizable=0;points=[];" parent="sOZoarH_zFzZJQYyIuvg-135" vertex="1" connectable="0">
                    <mxGeometry x="-0.0056" y="2" relative="1" as="geometry">
                        <mxPoint as="offset"/>
                    </mxGeometry>
                </mxCell>
                <mxCell id="sOZoarH_zFzZJQYyIuvg-137" value="5" style="endArrow=none;html=1;rounded=0;exitX=0;exitY=0.5;exitDx=0;exitDy=0;entryX=1;entryY=0.5;entryDx=0;entryDy=0;" parent="1" edge="1">
                    <mxGeometry width="50" height="50" relative="1" as="geometry">
                        <mxPoint x="50" y="199.66" as="sourcePoint"/>
                        <mxPoint x="160" y="199.66" as="targetPoint"/>
                    </mxGeometry>
                </mxCell>
                <mxCell id="sOZoarH_zFzZJQYyIuvg-138" value="5" style="edgeLabel;html=1;align=center;verticalAlign=middle;resizable=0;points=[];" parent="sOZoarH_zFzZJQYyIuvg-137" vertex="1" connectable="0">
                    <mxGeometry x="-0.0056" y="2" relative="1" as="geometry">
                        <mxPoint as="offset"/>
                    </mxGeometry>
                </mxCell>
                <mxCell id="sOZoarH_zFzZJQYyIuvg-139" value="" style="endArrow=none;html=1;rounded=0;exitX=0;exitY=0.5;exitDx=0;exitDy=0;entryX=1;entryY=0.5;entryDx=0;entryDy=0;" parent="1" edge="1">
                    <mxGeometry width="50" height="50" relative="1" as="geometry">
                        <mxPoint x="50" y="229.66" as="sourcePoint"/>
                        <mxPoint x="160" y="229.66" as="targetPoint"/>
                    </mxGeometry>
                </mxCell>
                <mxCell id="sOZoarH_zFzZJQYyIuvg-140" value="7" style="edgeLabel;html=1;align=center;verticalAlign=middle;resizable=0;points=[];" parent="sOZoarH_zFzZJQYyIuvg-139" vertex="1" connectable="0">
                    <mxGeometry x="-0.0056" y="2" relative="1" as="geometry">
                        <mxPoint as="offset"/>
                    </mxGeometry>
                </mxCell>
                <mxCell id="sOZoarH_zFzZJQYyIuvg-141" value="6" style="endArrow=none;html=1;rounded=0;exitX=0;exitY=0.5;exitDx=0;exitDy=0;entryX=1;entryY=0.5;entryDx=0;entryDy=0;" parent="1" edge="1">
                    <mxGeometry width="50" height="50" relative="1" as="geometry">
                        <mxPoint x="170" y="199.66" as="sourcePoint"/>
                        <mxPoint x="280" y="199.66" as="targetPoint"/>
                    </mxGeometry>
                </mxCell>
                <mxCell id="sOZoarH_zFzZJQYyIuvg-142" value="6" style="edgeLabel;html=1;align=center;verticalAlign=middle;resizable=0;points=[];" parent="sOZoarH_zFzZJQYyIuvg-141" vertex="1" connectable="0">
                    <mxGeometry x="-0.0056" y="2" relative="1" as="geometry">
                        <mxPoint as="offset"/>
                    </mxGeometry>
                </mxCell>
                <mxCell id="sOZoarH_zFzZJQYyIuvg-143" value="" style="endArrow=none;html=1;rounded=0;exitX=0;exitY=0.5;exitDx=0;exitDy=0;entryX=1;entryY=0.5;entryDx=0;entryDy=0;" parent="1" edge="1">
                    <mxGeometry width="50" height="50" relative="1" as="geometry">
                        <mxPoint x="170" y="229.66" as="sourcePoint"/>
                        <mxPoint x="280" y="229.66" as="targetPoint"/>
                    </mxGeometry>
                </mxCell>
                <mxCell id="sOZoarH_zFzZJQYyIuvg-144" value="8" style="edgeLabel;html=1;align=center;verticalAlign=middle;resizable=0;points=[];" parent="sOZoarH_zFzZJQYyIuvg-143" vertex="1" connectable="0">
                    <mxGeometry x="-0.0056" y="2" relative="1" as="geometry">
                        <mxPoint as="offset"/>
                    </mxGeometry>
                </mxCell>
                <mxCell id="sOZoarH_zFzZJQYyIuvg-145" value="" style="endArrow=none;html=1;rounded=0;exitX=0.5;exitY=1;exitDx=0;exitDy=0;entryX=0.5;entryY=0;entryDx=0;entryDy=0;" parent="1" source="sOZoarH_zFzZJQYyIuvg-89" target="sOZoarH_zFzZJQYyIuvg-65" edge="1">
                    <mxGeometry width="50" height="50" relative="1" as="geometry">
                        <mxPoint x="300" y="230" as="sourcePoint"/>
                        <mxPoint x="350" y="180" as="targetPoint"/>
                    </mxGeometry>
                </mxCell>
                <mxCell id="sOZoarH_zFzZJQYyIuvg-146" value="1" style="edgeLabel;html=1;align=center;verticalAlign=middle;resizable=0;points=[];" parent="sOZoarH_zFzZJQYyIuvg-145" vertex="1" connectable="0">
                    <mxGeometry x="0.0208" y="1" relative="1" as="geometry">
                        <mxPoint as="offset"/>
                    </mxGeometry>
                </mxCell>
                <mxCell id="sOZoarH_zFzZJQYyIuvg-147" value="" style="endArrow=none;html=1;rounded=0;exitX=0.5;exitY=1;exitDx=0;exitDy=0;entryX=0.5;entryY=0;entryDx=0;entryDy=0;" parent="1" edge="1">
                    <mxGeometry width="50" height="50" relative="1" as="geometry">
                        <mxPoint x="369.76" y="240" as="sourcePoint"/>
                        <mxPoint x="369.76" y="130" as="targetPoint"/>
                    </mxGeometry>
                </mxCell>
                <mxCell id="sOZoarH_zFzZJQYyIuvg-148" value="3" style="edgeLabel;html=1;align=center;verticalAlign=middle;resizable=0;points=[];" parent="sOZoarH_zFzZJQYyIuvg-147" vertex="1" connectable="0">
                    <mxGeometry x="0.0208" y="1" relative="1" as="geometry">
                        <mxPoint as="offset"/>
                    </mxGeometry>
                </mxCell>
                <mxCell id="sOZoarH_zFzZJQYyIuvg-149" value="5" style="endArrow=none;html=1;rounded=0;exitX=0.5;exitY=1;exitDx=0;exitDy=0;entryX=0.5;entryY=0;entryDx=0;entryDy=0;" parent="1" edge="1">
                    <mxGeometry width="50" height="50" relative="1" as="geometry">
                        <mxPoint x="400" y="240" as="sourcePoint"/>
                        <mxPoint x="400" y="130" as="targetPoint"/>
                    </mxGeometry>
                </mxCell>
                <mxCell id="sOZoarH_zFzZJQYyIuvg-150" value="" style="endArrow=none;html=1;rounded=0;exitX=0.5;exitY=1;exitDx=0;exitDy=0;entryX=0.5;entryY=0;entryDx=0;entryDy=0;" parent="1" edge="1">
                    <mxGeometry width="50" height="50" relative="1" as="geometry">
                        <mxPoint x="429.76" y="240" as="sourcePoint"/>
                        <mxPoint x="429.76" y="130" as="targetPoint"/>
                    </mxGeometry>
                </mxCell>
                <mxCell id="sOZoarH_zFzZJQYyIuvg-151" value="7" style="edgeLabel;html=1;align=center;verticalAlign=middle;resizable=0;points=[];" parent="sOZoarH_zFzZJQYyIuvg-150" vertex="1" connectable="0">
                    <mxGeometry x="0.0208" y="1" relative="1" as="geometry">
                        <mxPoint as="offset"/>
                    </mxGeometry>
                </mxCell>
                <mxCell id="sOZoarH_zFzZJQYyIuvg-152" value="" style="endArrow=none;html=1;rounded=0;exitX=0.5;exitY=1;exitDx=0;exitDy=0;entryX=0.5;entryY=0;entryDx=0;entryDy=0;" parent="1" edge="1">
                    <mxGeometry width="50" height="50" relative="1" as="geometry">
                        <mxPoint x="460" y="240" as="sourcePoint"/>
                        <mxPoint x="460" y="130" as="targetPoint"/>
                    </mxGeometry>
                </mxCell>
                <mxCell id="sOZoarH_zFzZJQYyIuvg-153" value="2" style="edgeLabel;html=1;align=center;verticalAlign=middle;resizable=0;points=[];" parent="sOZoarH_zFzZJQYyIuvg-152" vertex="1" connectable="0">
                    <mxGeometry x="0.0208" y="1" relative="1" as="geometry">
                        <mxPoint as="offset"/>
                    </mxGeometry>
                </mxCell>
                <mxCell id="sOZoarH_zFzZJQYyIuvg-154" value="" style="endArrow=none;html=1;rounded=0;exitX=0.5;exitY=1;exitDx=0;exitDy=0;entryX=0.5;entryY=0;entryDx=0;entryDy=0;" parent="1" edge="1">
                    <mxGeometry width="50" height="50" relative="1" as="geometry">
                        <mxPoint x="489.76" y="240" as="sourcePoint"/>
                        <mxPoint x="489.76" y="130" as="targetPoint"/>
                    </mxGeometry>
                </mxCell>
                <mxCell id="sOZoarH_zFzZJQYyIuvg-155" value="4" style="edgeLabel;html=1;align=center;verticalAlign=middle;resizable=0;points=[];" parent="sOZoarH_zFzZJQYyIuvg-154" vertex="1" connectable="0">
                    <mxGeometry x="0.0208" y="1" relative="1" as="geometry">
                        <mxPoint as="offset"/>
                    </mxGeometry>
                </mxCell>
                <mxCell id="sOZoarH_zFzZJQYyIuvg-156" value="" style="endArrow=none;html=1;rounded=0;exitX=0.5;exitY=1;exitDx=0;exitDy=0;entryX=0.5;entryY=0;entryDx=0;entryDy=0;" parent="1" edge="1">
                    <mxGeometry width="50" height="50" relative="1" as="geometry">
                        <mxPoint x="520" y="240" as="sourcePoint"/>
                        <mxPoint x="520" y="130" as="targetPoint"/>
                    </mxGeometry>
                </mxCell>
                <mxCell id="sOZoarH_zFzZJQYyIuvg-157" value="6" style="edgeLabel;html=1;align=center;verticalAlign=middle;resizable=0;points=[];" parent="sOZoarH_zFzZJQYyIuvg-156" vertex="1" connectable="0">
                    <mxGeometry x="0.0208" y="1" relative="1" as="geometry">
                        <mxPoint as="offset"/>
                    </mxGeometry>
                </mxCell>
                <mxCell id="sOZoarH_zFzZJQYyIuvg-158" value="" style="endArrow=none;html=1;rounded=0;exitX=0.5;exitY=1;exitDx=0;exitDy=0;entryX=0.5;entryY=0;entryDx=0;entryDy=0;" parent="1" edge="1">
                    <mxGeometry width="50" height="50" relative="1" as="geometry">
                        <mxPoint x="549.76" y="240" as="sourcePoint"/>
                        <mxPoint x="549.76" y="130" as="targetPoint"/>
                    </mxGeometry>
                </mxCell>
                <mxCell id="sOZoarH_zFzZJQYyIuvg-159" value="8" style="edgeLabel;html=1;align=center;verticalAlign=middle;resizable=0;points=[];" parent="sOZoarH_zFzZJQYyIuvg-158" vertex="1" connectable="0">
                    <mxGeometry x="0.0208" y="1" relative="1" as="geometry">
                        <mxPoint as="offset"/>
                    </mxGeometry>
                </mxCell>
                <mxCell id="sOZoarH_zFzZJQYyIuvg-160" value="A" style="text;html=1;align=center;verticalAlign=middle;resizable=0;points=[];autosize=1;strokeColor=none;fillColor=none;" parent="1" vertex="1">
                    <mxGeometry x="150" y="90" width="30" height="30" as="geometry"/>
                </mxCell>
                <mxCell id="sOZoarH_zFzZJQYyIuvg-161" value="B" style="text;html=1;align=center;verticalAlign=middle;resizable=0;points=[];autosize=1;strokeColor=none;fillColor=none;" parent="1" vertex="1">
                    <mxGeometry x="430" y="90" width="30" height="30" as="geometry"/>
                </mxCell>
                <mxCell id="sOZoarH_zFzZJQYyIuvg-168" value="" style="endArrow=classic;html=1;rounded=0;exitX=0.5;exitY=0;exitDx=0;exitDy=0;" parent="1" source="sOZoarH_zFzZJQYyIuvg-5" edge="1">
                    <mxGeometry width="50" height="50" relative="1" as="geometry">
                        <mxPoint x="240" y="300" as="sourcePoint"/>
                        <mxPoint x="510" y="130" as="targetPoint"/>
                        <Array as="points">
                            <mxPoint x="180" y="110"/>
                            <mxPoint x="510" y="110"/>
                        </Array>
                    </mxGeometry>
                </mxCell>
                <mxCell id="sOZoarH_zFzZJQYyIuvg-169" value="①" style="edgeLabel;html=1;align=center;verticalAlign=middle;resizable=0;points=[];" parent="sOZoarH_zFzZJQYyIuvg-168" vertex="1" connectable="0">
                    <mxGeometry x="0.0211" relative="1" as="geometry">
                        <mxPoint as="offset"/>
                    </mxGeometry>
                </mxCell>
                <mxCell id="sOZoarH_zFzZJQYyIuvg-171" value="" style="endArrow=classic;html=1;rounded=0;exitX=0;exitY=0;exitDx=0;exitDy=0;entryX=0;entryY=0.75;entryDx=0;entryDy=0;" parent="1" source="sOZoarH_zFzZJQYyIuvg-162" target="sOZoarH_zFzZJQYyIuvg-97" edge="1">
                    <mxGeometry width="50" height="50" relative="1" as="geometry">
                        <mxPoint x="370" y="300" as="sourcePoint"/>
                        <mxPoint x="300" y="260" as="targetPoint"/>
                        <Array as="points">
                            <mxPoint x="450" y="120"/>
                            <mxPoint x="310" y="120"/>
                            <mxPoint x="310" y="265"/>
                        </Array>
                    </mxGeometry>
                </mxCell>
                <mxCell id="sOZoarH_zFzZJQYyIuvg-173" value="③" style="edgeLabel;html=1;align=center;verticalAlign=middle;resizable=0;points=[];" parent="sOZoarH_zFzZJQYyIuvg-171" vertex="1" connectable="0">
                    <mxGeometry x="0.3267" y="1" relative="1" as="geometry">
                        <mxPoint as="offset"/>
                    </mxGeometry>
                </mxCell>
            </root>
        </mxGraphModel>
    </diagram>
</mxfile>